<?xml version="1.0" encoding="UTF-8"?>
<svg version="1.1" xmlns="http://www.w3.org/2000/svg" width="487" height="311">
<path d="M0 0 C3.98379754 2.35563681 7.35848313 5.34516902 10.81884766 8.38964844 C19.52951687 16.04039671 29.65680998 21.32837766 39.77734375 26.87109375 C42.47990779 28.35203273 45.15753082 29.86272756 47.82128906 31.4128418 C54.00277102 35.00847106 60.21150418 38.4245243 66.640625 41.55859375 C67.3110936 41.88599045 67.98156219 42.21338715 68.67234802 42.55070496 C71.40664716 43.88166807 74.14303369 45.20781057 76.88720703 46.51831055 C90.50253408 53.03903017 104.34923097 59.97031732 109.9296875 74.91796875 C112.27942858 83.13007407 110.61232219 90.15916253 106.6953125 97.59375 C101.01749454 106.19158863 93.02019844 108.86109941 83.3828125 111.03125 C70.26294368 113.65598199 61.66575052 111.405238 50.4921875 104.15625 C45.02454133 100.50370598 39.68315383 96.68472574 34.37304688 92.80810547 C29.54464467 89.31327535 24.60663221 85.97053098 19.6953125 82.59375 C18.99422363 82.11131836 18.29313477 81.62888672 17.57080078 81.13183594 C12.94715968 77.95025634 8.3218324 74.77114172 3.6953125 71.59375 C0.14264881 75.714191 -2.36384914 80.08468207 -4.9296875 84.84375 C-9.87350972 93.87131751 -14.98738434 102.7809495 -20.3046875 111.59375 C-21.06652344 112.86605469 -21.06652344 112.86605469 -21.84375 114.1640625 C-25.44647115 119.87363812 -29.86272957 124.86827009 -34.34326172 129.89916992 C-37.29667683 132.80903602 -37.29667683 132.80903602 -38.3046875 136.59375 C-36.20977691 138.19059107 -34.10876931 139.68239525 -31.9296875 141.15625 C-25.608204 145.54390591 -19.92007959 150.32498705 -14.3046875 155.59375 C-9.51836634 159.96428972 -4.5412076 164.04971119 0.5703125 168.03125 C1.42846558 168.70595337 1.42846558 168.70595337 2.30395508 169.39428711 C5.1685665 171.828364 5.1685665 171.828364 8.6953125 172.59375 C8.0559375 171.541875 7.4165625 170.49 6.7578125 169.40625 C3.00536114 162.77647729 2.70594076 155.5382762 4.6328125 148.21875 C8.24673702 138.53142456 15.90403672 132.84776353 24.99609375 128.65234375 C36.38920694 124.18413293 47.6378251 126.90683257 58.8828125 130.53125 C60.09517578 130.90443359 61.30753906 131.27761719 62.55664062 131.66210938 C71.18649899 134.33934324 71.18649899 134.33934324 73.6953125 135.59375 C75.90090155 135.88609186 78.1098912 136.15302186 80.3203125 136.40625 C89.13412192 137.6331467 94.75395791 139.82720727 100.6953125 146.59375 C101.3759375 147.33625 102.0565625 148.07875 102.7578125 148.84375 C104.8600577 151.8275819 106.20499139 154.76602372 107.6171875 158.1171875 C109.13520054 161.60421746 110.89016485 164.95908531 112.64453125 168.33203125 C115.75161901 175.01977778 115.21076345 181.84128251 112.98828125 188.73828125 C110.49022231 194.25514253 106.70644311 198.96180631 103.06689453 203.76611328 C100.84291302 206.72957459 98.71168087 209.75787251 96.5703125 212.78125 C84.55421193 229.61974034 84.55421193 229.61974034 81.421875 233.171875 C80.56722656 234.37070312 80.56722656 234.37070312 79.6953125 235.59375 C80.3312582 239.03860583 80.3312582 239.03860583 81.09375 241.36328125 C83.23263825 249.29383443 81.51730713 256.49917248 77.6953125 263.59375 C73.86421053 269.74745753 68.61428455 273.48598368 61.6953125 275.59375 C50.1415116 277.57440158 42.35194065 274.33057071 32.58666992 268.65112305 C30.64647024 267.56644448 28.67005717 266.63118293 26.65625 265.69140625 C22.46901177 263.62191595 19.20640394 260.89838775 15.7578125 257.78125 C14.53236745 256.70575666 13.30580774 255.63153204 12.078125 254.55859375 C11.49450195 254.04538574 10.91087891 253.53217773 10.30957031 253.00341797 C5.02583163 248.38933643 -0.42216829 244.46432051 -6.4296875 240.84375 C-15.39056608 235.43596397 -23.66056093 229.11650239 -31.9921875 222.796875 C-39.02529759 217.50151053 -46.16066976 212.80481892 -53.80786133 208.44213867 C-62.01845134 203.70637595 -69.67527981 198.2053926 -77.3046875 192.59375 C-78.36453857 191.81535767 -78.36453857 191.81535767 -79.44580078 191.02124023 C-87.80558307 184.82406799 -95.28977758 178.68925539 -97.2421875 167.96875 C-98.09940761 163.4702409 -99.9326336 161.72494291 -103.3046875 158.59375 C-107.66093045 152.21805668 -108.80865192 145.57410423 -108.0390625 137.96875 C-105.84748095 127.19869208 -97.79001515 119.23021447 -90.5546875 111.40625 C-86.34496229 106.81986516 -83.3230082 102.01374523 -80.3046875 96.59375 C-79.1796875 94.71875 -78.0546875 92.84375 -76.9296875 90.96875 C-73.95010883 85.84699058 -71.25694998 80.61247917 -68.64160156 75.29931641 C-65.58204731 69.09739946 -62.38958236 62.96899511 -59.1796875 56.84375 C-57.22026258 53.09431955 -55.26241404 49.34406743 -53.3046875 45.59375 C-52.95035645 44.91666992 -52.59602539 44.23958984 -52.23095703 43.54199219 C-49.70457137 38.69785832 -47.34401512 34.01330651 -45.7421875 28.78125 C-44.60718517 25.07755819 -42.98869195 22.51152355 -40.6171875 19.4765625 C-39.07572461 17.26529729 -38.04282156 14.98453889 -36.9296875 12.53125 C-33.19876339 4.91924074 -27.81555989 1.1354862 -19.91015625 -1.7109375 C-12.93653328 -3.57196432 -6.58651635 -2.89063414 0 0 Z M16.6953125 180.59375 C20.66934663 187.09671493 25.12093825 192.40137601 30.6953125 197.59375 C33.95047678 194.42900695 37.01540043 191.26622209 39.6953125 187.59375 C39.6953125 186.93375 39.6953125 186.27375 39.6953125 185.59375 C38.62152344 185.40039062 37.54773438 185.20703125 36.44140625 185.0078125 C35.00517517 184.74497282 33.5689791 184.48194176 32.1328125 184.21875 C31.42833984 184.09242188 30.72386719 183.96609375 29.99804688 183.8359375 C25.46816553 183.00093633 21.10501117 181.92651044 16.6953125 180.59375 Z " fill="#7b7e8c" transform="translate(122.3046875,20.40625)"/>
<path d="M0 0 C6.2862447 4.32578344 8.89992048 9.73358517 10.53369141 16.98144531 C10.9349768 18.57645257 11.34127283 20.17020716 11.75244141 21.76269531 C11.95224609 22.54128906 12.15205078 23.31988281 12.35791016 24.12207031 C14.59573569 32.27516714 18.14846884 39.8525825 21.97119141 47.35644531 C21.97119141 48.01644531 21.97119141 48.67644531 21.97119141 49.35644531 C22.62901611 49.32615234 23.28684082 49.29585937 23.96459961 49.26464844 C35.12735283 48.75985396 46.29726926 48.26194039 57.47119141 48.10644531 C58.5700769 48.07454102 58.5700769 48.07454102 59.69116211 48.04199219 C66.05241553 48.00104148 72.05055914 49.29883794 77.31103516 53.00488281 C78.101875 53.85953125 78.101875 53.85953125 78.90869141 54.73144531 C79.45396484 55.29605469 79.99923828 55.86066406 80.56103516 56.44238281 C85.00602083 62.47574287 84.52284038 69.17611105 83.97119141 76.35644531 C80.09055695 90.28107484 64.56401415 99.56852507 52.70166016 106.39550781 C52.13060547 106.71261719 51.55955078 107.02972656 50.97119141 107.35644531 C51.46748047 108.42378906 51.96376953 109.49113281 52.47509766 110.59082031 C56.29343779 118.91650305 59.85628272 127.30306716 62.97119141 135.91894531 C63.27355713 136.7262207 63.57592285 137.53349609 63.88745117 138.36523438 C66.25743761 145.1025194 66.98423631 151.09218952 64.84619141 157.98144531 C61.04830111 164.81764785 56.65736621 170.02314225 48.97119141 172.35644531 C37.74158313 174.3671522 28.09090137 168.16127647 18.76757812 162.66455078 C11.0714882 158.16203352 3.03797678 154.30402041 -4.9609375 150.37451172 C-6.9877265 149.37667109 -9.00923311 148.3687938 -11.02880859 147.35644531 C-11.55345703 147.75734375 -12.07810547 148.15824219 -12.61865234 148.57128906 C-23.34834189 156.44448888 -35.35468834 162.16627348 -47.34130859 167.85644531 C-48.05230713 168.19474365 -48.76330566 168.53304199 -49.49584961 168.8815918 C-57.35022828 172.54835995 -64.36365579 173.21908357 -73.02880859 172.35644531 C-79.17646346 170.0910251 -83.13443658 165.76631494 -86.27880859 160.10644531 C-88.84129098 150.71067655 -85.61452422 144.52559779 -81.02880859 136.35644531 C-79.45259263 133.51041208 -77.88152017 130.66165294 -76.31494141 127.81030273 C-75.21548869 125.81386854 -74.10816498 123.82174697 -72.99267578 121.83422852 C-72.48124023 120.912146 -71.96980469 119.99006348 -71.44287109 119.04003906 C-70.9783252 118.21044678 -70.5137793 117.38085449 -70.03515625 116.52612305 C-68.81842541 114.30147775 -68.81842541 114.30147775 -69.02880859 111.35644531 C-70.82751903 110.07213365 -70.82751903 110.07213365 -73.21630859 108.91894531 C-79.89356676 105.12504863 -85.11986337 100.0516078 -90.59570312 94.73828125 C-91.81435731 93.56322457 -93.05778722 92.41395031 -94.30615234 91.27050781 C-99.71456896 86.21655402 -102.12560947 81.41431372 -102.52880859 73.91894531 C-102.31910679 67.26319226 -99.88674919 63.27948706 -95.31396484 58.60253906 C-90.31511458 54.06310173 -86.07909854 52.07000601 -79.21630859 52.16894531 C-78.24048828 52.17539063 -77.26466797 52.18183594 -76.25927734 52.18847656 C-73.22587333 52.3461989 -70.26202435 52.7049996 -67.25268555 53.10473633 C-63.02537291 53.5832037 -58.77719865 53.73060825 -54.52880859 53.91894531 C-53.15208984 53.9837207 -53.15208984 53.9837207 -51.74755859 54.04980469 C-49.50808798 54.15477987 -47.26852767 54.25693779 -45.02880859 54.35644531 C-43.47259455 49.2193332 -41.94369282 44.07710389 -40.48583984 38.91113281 C-30.96444477 5.6876031 -30.96444477 5.6876031 -17.65380859 -2.01855469 C-11.3260677 -3.52515966 -5.69199877 -3.34184176 0 0 Z " fill="#7b7e8c" transform="translate(377.02880859375,80.6435546875)"/>
</svg>
