<?xml version="1.0" encoding="UTF-8"?>
<svg version="1.1" xmlns="http://www.w3.org/2000/svg" width="229" height="318">
<path d="M0 0 C3.98379754 2.35563681 7.35848313 5.34516902 10.81884766 8.38964844 C19.52951687 16.04039671 29.65680998 21.32837766 39.77734375 26.87109375 C42.47990779 28.35203273 45.15753082 29.86272756 47.82128906 31.4128418 C54.00277102 35.00847106 60.21150418 38.4245243 66.640625 41.55859375 C67.3110936 41.88599045 67.98156219 42.21338715 68.67234802 42.55070496 C71.40664716 43.88166807 74.14303369 45.20781057 76.88720703 46.51831055 C90.50253408 53.03903017 104.34923097 59.97031732 109.9296875 74.91796875 C112.27942858 83.13007407 110.61232219 90.15916253 106.6953125 97.59375 C101.01749454 106.19158863 93.02019844 108.86109941 83.3828125 111.03125 C70.26294368 113.65598199 61.66575052 111.405238 50.4921875 104.15625 C45.02454133 100.50370598 39.68315383 96.68472574 34.37304688 92.80810547 C29.54464467 89.31327535 24.60663221 85.97053098 19.6953125 82.59375 C18.99422363 82.11131836 18.29313477 81.62888672 17.57080078 81.13183594 C12.94715968 77.95025634 8.3218324 74.77114172 3.6953125 71.59375 C0.14264881 75.714191 -2.36384914 80.08468207 -4.9296875 84.84375 C-9.87350972 93.87131751 -14.98738434 102.7809495 -20.3046875 111.59375 C-21.06652344 112.86605469 -21.06652344 112.86605469 -21.84375 114.1640625 C-25.44647115 119.87363812 -29.86272957 124.86827009 -34.34326172 129.89916992 C-37.29667683 132.80903602 -37.29667683 132.80903602 -38.3046875 136.59375 C-36.20977691 138.19059107 -34.10876931 139.68239525 -31.9296875 141.15625 C-25.608204 145.54390591 -19.92007959 150.32498705 -14.3046875 155.59375 C-9.51836634 159.96428972 -4.5412076 164.04971119 0.5703125 168.03125 C1.42846558 168.70595337 1.42846558 168.70595337 2.30395508 169.39428711 C5.1685665 171.828364 5.1685665 171.828364 8.6953125 172.59375 C8.0559375 171.541875 7.4165625 170.49 6.7578125 169.40625 C3.00536114 162.77647729 2.70594076 155.5382762 4.6328125 148.21875 C8.24673702 138.53142456 15.90403672 132.84776353 24.99609375 128.65234375 C36.38920694 124.18413293 47.6378251 126.90683257 58.8828125 130.53125 C60.09517578 130.90443359 61.30753906 131.27761719 62.55664062 131.66210938 C71.18649899 134.33934324 71.18649899 134.33934324 73.6953125 135.59375 C75.90090155 135.88609186 78.1098912 136.15302186 80.3203125 136.40625 C89.13412192 137.6331467 94.75395791 139.82720727 100.6953125 146.59375 C101.3759375 147.33625 102.0565625 148.07875 102.7578125 148.84375 C104.8600577 151.8275819 106.20499139 154.76602372 107.6171875 158.1171875 C109.13520054 161.60421746 110.89016485 164.95908531 112.64453125 168.33203125 C115.75161901 175.01977778 115.21076345 181.84128251 112.98828125 188.73828125 C110.49022231 194.25514253 106.70644311 198.96180631 103.06689453 203.76611328 C100.84291302 206.72957459 98.71168087 209.75787251 96.5703125 212.78125 C84.55421193 229.61974034 84.55421193 229.61974034 81.421875 233.171875 C80.56722656 234.37070312 80.56722656 234.37070312 79.6953125 235.59375 C80.3312582 239.03860583 80.3312582 239.03860583 81.09375 241.36328125 C83.23263825 249.29383443 81.51730713 256.49917248 77.6953125 263.59375 C73.86421053 269.74745753 68.61428455 273.48598368 61.6953125 275.59375 C50.1415116 277.57440158 42.35194065 274.33057071 32.58666992 268.65112305 C30.64647024 267.56644448 28.67005717 266.63118293 26.65625 265.69140625 C22.46901177 263.62191595 19.20640394 260.89838775 15.7578125 257.78125 C14.53236745 256.70575666 13.30580774 255.63153204 12.078125 254.55859375 C11.49450195 254.04538574 10.91087891 253.53217773 10.30957031 253.00341797 C5.02583163 248.38933643 -0.42216829 244.46432051 -6.4296875 240.84375 C-15.39056608 235.43596397 -23.66056093 229.11650239 -31.9921875 222.796875 C-39.02529759 217.50151053 -46.16066976 212.80481892 -53.80786133 208.44213867 C-62.01845134 203.70637595 -69.67527981 198.2053926 -77.3046875 192.59375 C-78.36453857 191.81535767 -78.36453857 191.81535767 -79.44580078 191.02124023 C-87.85788118 184.78529898 -95.24638584 178.65515868 -97.3046875 167.90625 C-97.459375 166.81763672 -97.459375 166.81763672 -97.6171875 165.70703125 C-98.15417435 163.41809178 -98.15417435 163.41809178 -100.30566406 161.92895508 C-102.98567136 158.79824308 -102.95116901 156.0631181 -102.9765625 152.1171875 C-102.9898761 151.3918985 -103.0031897 150.6666095 -103.01690674 149.91934204 C-103.03712478 148.38464458 -103.04654184 146.84977191 -103.04589844 145.31494141 C-103.05459042 142.9946655 -103.12703025 140.68219452 -103.203125 138.36328125 C-103.33348913 129.85733684 -102.53925197 124.02168086 -96.41210938 117.61132812 C-95.71666016 116.94552734 -95.02121094 116.27972656 -94.3046875 115.59375 C-93.30088514 114.45939175 -92.30716788 113.31595158 -91.328125 112.16015625 C-90.88847412 111.66306152 -90.44882324 111.1659668 -89.99584961 110.65380859 C-84.74891567 104.68373017 -80.8409474 98.73717226 -77.3046875 91.59375 C-76.224986 89.53216338 -75.13238609 87.4776495 -74.0402832 85.42260742 C-69.63292085 77.11558718 -65.30433181 68.76667607 -60.97094727 60.42089844 C-60.08195712 58.70876927 -59.1923554 56.99695769 -58.30273438 55.28515625 C-55.50749793 49.89365542 -52.72793638 44.49413617 -49.98046875 39.078125 C-49.50262939 38.13807617 -49.02479004 37.19802734 -48.5324707 36.22949219 C-47.38773276 33.77202731 -46.5157139 31.37599047 -45.7421875 28.78125 C-44.60718517 25.07755819 -42.98869195 22.51152355 -40.6171875 19.4765625 C-39.07572461 17.26529729 -38.04282156 14.98453889 -36.9296875 12.53125 C-33.19876339 4.91924074 -27.81555989 1.1354862 -19.91015625 -1.7109375 C-12.93653328 -3.57196432 -6.58651635 -2.89063414 0 0 Z M16.6953125 180.59375 C20.66934663 187.09671493 25.12093825 192.40137601 30.6953125 197.59375 C33.95047678 194.42900695 37.01540043 191.26622209 39.6953125 187.59375 C39.6953125 186.93375 39.6953125 186.27375 39.6953125 185.59375 C38.62152344 185.40039062 37.54773438 185.20703125 36.44140625 185.0078125 C35.00517517 184.74497282 33.5689791 184.48194176 32.1328125 184.21875 C31.42833984 184.09242188 30.72386719 183.96609375 29.99804688 183.8359375 C25.46816553 183.00093633 21.10501117 181.92651044 16.6953125 180.59375 Z " fill="#FEFAFA" transform="translate(102.3046875,12.40625)"/>
</svg>
